<svg xmlns="http://www.w3.org/2000/svg" width="115.335" height="68.934" viewBox="0 0 115.335 68.934">
  <g id="Group_174" data-name="Group 174" transform="translate(-390.666 -4004.533)">
    <path id="Path_46" data-name="Path 46" d="M498.187,4044.17v-39.637H506v39.637Zm-26.243-23.386h6.993a4.458,4.458,0,0,0,2.322-.623,4.814,4.814,0,0,0,1.7-1.727,4.707,4.707,0,0,0,.651-2.435,4.5,4.5,0,0,0-.651-2.378,4.756,4.756,0,0,0-1.7-1.756,4.309,4.309,0,0,0-2.322-.651h-6.993Zm-7.814,23.386v-39.637h15.742a10.71,10.71,0,0,1,5.832,1.642,11.691,11.691,0,0,1,4.162,4.36,11.915,11.915,0,0,1,1.557,6.03,12.774,12.774,0,0,1-.906,4.842,11.909,11.909,0,0,1-6.37,6.483l9.428,16.28h-9L475.54,4028.6h-3.6v15.572Zm-20.832.736a15.194,15.194,0,0,1-8.381-2.322,16.173,16.173,0,0,1-5.634-6.228,18.894,18.894,0,0,1-2.01-8.721v-23.1h7.814v23.1a11.447,11.447,0,0,0,.963,4.729,8.278,8.278,0,0,0,2.8,3.454,7.618,7.618,0,0,0,4.445,1.274,7.538,7.538,0,0,0,4.445-1.274,7.89,7.89,0,0,0,2.774-3.426,11.818,11.818,0,0,0,.935-4.757v-23.1h7.814v23.1a19.291,19.291,0,0,1-1.161,6.739,16.743,16.743,0,0,1-3.256,5.492,14.977,14.977,0,0,1-5.068,3.709A15.438,15.438,0,0,1,443.3,4044.906Zm-52.632-.736v-7.814l21.489-24.009H390.666v-7.814h32.049v7.814l-21.489,24.009h21.489v7.814Z" fill="#00f9ed"/>
    <path id="Path_47" data-name="Path 47" d="M502.832,4047.043h2.642v26.424h-2.642v-12.834H488.959v12.834h-2.643v-26.424h2.643v10.947h13.873Zm-17.663,0v2.642h-9.06v23.782h-2.642v-23.782h-9.041v-2.642Zm-33.456,26.424v-26.424h2.642v23.782h12.137v2.642Zm-17.57-8.3h10.835l-5.418-14.874Zm3.775-18.12H441.2l9.626,26.424h-2.813l-2.057-5.662H433.181l-2.058,5.662h-2.812Zm-26.19,26.424v-26.424h16.081v2.642H414.37v8.3h11.117v2.643H414.37v10.192h13.439v2.642Zm-4.547-26.424h2.643v26.424h-2.643v-12.834H393.308v12.834h-2.642v-26.424h2.642v10.947h13.873Z" fill="#00f9ed"/>
  </g>
</svg>
